<svg width="214" height="36" viewBox="0 0 214 36" fill="none" xmlns="http://www.w3.org/2000/svg">
<g id="vectors">
<path id="Vector" d="M41.5095 22.3053V20.6014H40.6359C36.3859 20.6014 32.155 21.6149 28.3663 23.5342L28.3705 20.5169C30.8625 20.1136 32.7706 17.9514 32.7706 15.3522V9.24788V8.34837V3.16469C32.7706 3.15836 32.7706 3.14992 32.7706 3.14358V2.24409H31.0233V3.14358C31.0233 4.76942 29.9021 6.13978 28.3917 6.52407L28.4001 0.50211L26.6528 0.5L26.6443 6.50296C26.0879 6.34037 25.5569 6.03209 25.1149 5.60346C24.4167 4.92567 24.0317 4.05363 24.0317 3.14569V2.23775H22.2844V8.35263V9.25212V15.3564C22.2844 17.9346 24.1608 20.0819 26.621 20.5106L26.6168 23.5026C22.8471 21.6064 18.6437 20.6056 14.4192 20.6056H13.5455V22.3581H10V31.8957H14.417C18.5612 31.8957 22.6842 32.924 26.3418 34.8708L27.5243 35.5L28.7068 34.8708C32.3644 32.924 36.4875 31.8957 40.6316 31.8957H45V22.3096H41.5095V22.3053ZM28.7111 25.3205C32.1106 23.511 35.9142 22.4932 39.7622 22.3602V25.7998C35.8042 25.9286 31.8906 26.9316 28.36 28.7221L28.3641 25.5043L28.7111 25.3205ZM28.3747 18.7348L28.3811 14.4084C29.3859 14.2437 30.2977 13.7918 31.0254 13.1415V15.3501C31.0254 16.9844 29.8957 18.3568 28.3747 18.7348ZM31.0254 7.03719V8.34631V9.24575C31.0254 10.8759 29.9 12.2462 28.3853 12.6284L28.3917 8.30194C29.3923 8.13725 30.2998 7.6875 31.0254 7.03719ZM24.0338 6.97594C24.7827 7.65581 25.6966 8.11194 26.6422 8.28925L26.6359 12.6178C25.1402 12.223 24.0338 10.8611 24.0338 9.24575V8.34631V6.97594ZM24.0338 15.3501V13.1415C24.751 13.7834 25.6458 14.231 26.6337 14.3999L26.6274 18.7179C25.136 18.3231 24.0338 16.9632 24.0338 15.3501ZM15.295 22.3602C19.1429 22.4932 22.9465 23.511 26.346 25.3205L26.6168 25.4641L26.6126 28.6778C23.1052 26.9147 19.2212 25.9265 15.2971 25.7998V22.3602H15.295ZM43.2569 30.1474H40.6359C36.2061 30.1474 31.7975 31.2474 27.8882 33.3273L27.5286 33.5194L27.169 33.3273C23.2596 31.2454 18.851 30.1474 14.4213 30.1474H11.7516V24.098H13.5476V27.5291H14.4213C18.5654 27.5291 22.6884 28.5574 26.346 30.5043L27.5286 31.1334L28.7111 30.5043C32.3687 28.5574 36.4917 27.5291 40.6359 27.5291H41.5095V24.0494H43.2569V30.1474Z" fill="#00594C"/>
<path id="Vector_2" d="M62.3146 27.5048C61.2153 26.8182 60.3875 25.9017 59.8312 24.7485C59.2749 23.5952 59 22.3221 59 20.9322C59 19.5624 59.2648 18.2893 59.7943 17.1094C60.3238 15.9329 61.1215 14.9863 62.1872 14.2697C63.253 13.5565 64.5499 13.1965 66.0748 13.1965C67.6701 13.1965 68.9705 13.5598 69.9793 14.2831C70.9847 15.0064 71.7086 15.9229 72.151 17.0261C72.5933 18.1293 72.8112 19.2691 72.8112 20.4423C72.8112 20.719 72.7977 20.989 72.7743 21.2555C72.7509 21.5222 72.7241 21.7089 72.6939 21.8189H62.2408C62.3782 23.062 62.7872 24.0285 63.4675 24.7185C64.1478 25.4084 65.1063 25.755 66.343 25.755C67.107 25.755 67.7974 25.6284 68.4175 25.3717C69.0375 25.1151 69.624 24.6852 70.1803 24.0853L72.2917 25.935C71.4673 26.8215 70.5758 27.4782 69.6073 27.9014C68.642 28.3247 67.5494 28.538 66.3295 28.538C64.7544 28.5347 63.4172 28.1914 62.3146 27.5048ZM69.7781 19.6025C69.7982 19.2758 69.7681 18.9659 69.6877 18.6692C69.5301 17.8026 69.1313 17.1028 68.4979 16.5694C67.8645 16.0362 67.0468 15.7695 66.0447 15.7695C64.9354 15.7695 64.0639 16.1162 63.4339 16.8061C62.8038 17.496 62.4051 18.4293 62.2375 19.6025H69.7781Z" fill="#00594C"/>
<path id="Vector_3" d="M78.0025 27.4981C77.0206 26.8082 76.2732 25.8783 75.7572 24.7118C75.241 23.5419 74.9829 22.2587 74.9829 20.8589C74.9829 19.4691 75.241 18.1892 75.7572 17.0227C76.2732 15.8529 77.0173 14.9263 77.9858 14.2364C78.9577 13.5464 80.1005 13.1999 81.421 13.1999C82.3627 13.1999 83.2408 13.4032 84.0618 13.8065C84.8796 14.2097 85.5298 14.793 86.0158 15.5529V7.3606H89.1393V28.2547H86.2705L86.1532 26.0216C85.6573 26.8415 84.997 27.4648 84.1759 27.8914C83.3514 28.3214 82.4498 28.5347 81.4712 28.5347C80.1373 28.5347 78.9845 28.1881 78.0025 27.4981ZM84.4339 25.1184C85.0438 24.6951 85.5031 24.1152 85.808 23.3819C86.1163 22.6487 86.2705 21.8088 86.2705 20.8623C86.2705 19.9258 86.1163 19.0892 85.808 18.3559C85.4997 17.6227 85.0405 17.0428 84.4339 16.6194C83.824 16.1962 83.0833 15.9828 82.2119 15.9828C81.3406 15.9828 80.5932 16.1962 79.9732 16.6261C79.3531 17.0561 78.8873 17.636 78.5756 18.3725C78.264 19.1058 78.1065 19.9391 78.1065 20.8656C78.1065 21.8022 78.264 22.6388 78.5756 23.3787C78.8873 24.1186 79.3531 24.6985 79.9732 25.1251C80.5932 25.5484 81.3373 25.7617 82.2119 25.7617C83.0833 25.755 83.824 25.5417 84.4339 25.1184Z" fill="#00594C"/>
<path id="Vector_4" d="M95.6512 27.7048C94.857 27.1516 94.2769 26.425 93.905 25.5151C93.533 24.6086 93.3417 23.6087 93.3318 22.5122V13.4766H96.3782V22.0522C96.3782 23.1754 96.6495 24.0653 97.1892 24.7219C97.7288 25.3785 98.4993 25.7051 99.5017 25.7051C100.631 25.7051 101.516 25.3751 102.156 24.7152C102.797 24.0553 103.114 23.0754 103.114 21.7722V13.4766H106.165V28.2481H103.114V26.2651C102.589 27.0149 101.929 27.5782 101.13 27.9582C100.333 28.3381 99.5017 28.5281 98.6404 28.5281C97.4408 28.5347 96.4453 28.2581 95.6512 27.7048Z" fill="#00594C"/>
<path id="Vector_5" d="M111.829 16.0529H108.989V13.4799H111.845V11.3935C111.845 10.4969 112.05 9.72039 112.455 9.06374C112.86 8.4072 113.414 7.91392 114.114 7.57731C114.815 7.2407 115.582 7.07397 116.427 7.07397C117.267 7.07397 118.112 7.27069 118.953 7.66393L117.941 10.177C117.495 9.92036 117.083 9.79369 116.708 9.79369C116.182 9.79369 115.766 9.95035 115.458 10.2669C115.149 10.5836 114.995 11.0602 114.995 11.7001V13.4732H118.756V16.0462H114.995V28.2448H111.829V16.0529Z" fill="#00594C"/>
<path id="Vector_6" d="M129.688 13.9532C130.63 14.4565 131.347 15.1631 131.843 16.0763C132.339 16.9895 132.587 18.0494 132.587 19.2626V28.2515H130.043L129.835 25.9451C129.36 26.775 128.673 27.4116 127.778 27.8615C126.879 28.3115 125.941 28.5347 124.96 28.5347C123.937 28.5347 123.026 28.3482 122.225 27.9715C121.42 27.5982 120.793 27.0517 120.338 26.3384C119.882 25.6251 119.654 24.7786 119.654 23.8021C119.654 22.3022 120.191 21.219 121.259 20.549C122.328 19.8792 123.796 19.5426 125.66 19.5426H129.792C129.772 18.666 129.655 17.9627 129.437 17.4361C129.219 16.9096 128.863 16.5162 128.374 16.2596C127.885 16.0029 127.208 15.8764 126.344 15.8764C125.502 15.8764 124.765 16.073 124.135 16.4696C123.504 16.8629 122.988 17.3961 122.58 18.0661L120.23 16.3796C120.985 15.343 121.849 14.5565 122.825 14.0132C123.799 13.47 124.969 13.2 126.327 13.2C127.623 13.2 128.746 13.4499 129.688 13.9532ZM127.627 25.4285C128.227 25.0919 128.709 24.6453 129.078 24.082C129.443 23.5187 129.681 22.8988 129.792 22.2189V21.7623H125.838C124.845 21.7623 124.091 21.9556 123.578 22.3455C123.062 22.7355 122.804 23.2487 122.804 23.8921C122.804 24.5119 123.043 25.0085 123.518 25.3785C123.994 25.7484 124.677 25.9317 125.569 25.9317C126.34 25.9317 127.027 25.7651 127.627 25.4285Z" fill="#00594C"/>
<path id="Vector_7" d="M136.81 13.4799H139.799V16.1695C140.017 15.5396 140.346 14.9996 140.781 14.5497C141.217 14.0997 141.716 13.7631 142.276 13.5365C142.836 13.3099 143.409 13.1965 143.992 13.1965C144.477 13.1965 144.947 13.2765 145.396 13.4332C145.849 13.5899 146.237 13.8264 146.562 14.1431L145.165 16.6562C144.649 16.3295 144.102 16.1695 143.529 16.1695C142.896 16.1695 142.289 16.3629 141.716 16.7461C141.14 17.1294 140.674 17.7293 140.312 18.5425C139.95 19.3558 139.77 20.369 139.77 21.5822V28.2513H136.81V13.4799Z" fill="#00594C"/>
<path id="Vector_8" d="M148.912 13.4799H151.871V15.5662C152.307 14.7497 152.887 14.1497 153.611 13.7698C154.334 13.3898 155.145 13.1999 156.051 13.1999C157.052 13.1999 157.947 13.4265 158.742 13.8798C159.536 14.333 160.119 15.0497 160.498 16.0229C161.024 15.0663 161.7 14.3564 162.535 13.8931C163.367 13.4299 164.291 13.1965 165.3 13.1965C166.479 13.1965 167.465 13.4765 168.253 14.0397C169.04 14.6031 169.623 15.3529 169.998 16.2962C170.374 17.2361 170.566 18.2893 170.566 19.4524V28.2513H167.489V19.8391C167.489 18.6359 167.274 17.706 166.841 17.0428C166.409 16.3828 165.696 16.0529 164.694 16.0529C164.01 16.0529 163.41 16.2229 162.894 16.5628C162.377 16.9028 161.983 17.3661 161.704 17.9527C161.426 18.5392 161.288 19.1958 161.288 19.9258V28.2513H158.212V19.6158C158.212 18.5125 157.994 17.6427 157.558 17.0061C157.123 16.3695 156.419 16.0529 155.447 16.0529C154.753 16.0529 154.146 16.2229 153.628 16.5628C153.108 16.9028 152.709 17.3661 152.431 17.9527C152.153 18.5392 152.016 19.1958 152.016 19.9258V28.2513H148.939L148.912 13.4799Z" fill="#00594C"/>
<path id="Vector_9" d="M176.836 27.5048C175.736 26.8182 174.908 25.9017 174.352 24.7485C173.796 23.5952 173.521 22.3221 173.521 20.9322C173.521 19.5624 173.786 18.2893 174.316 17.1094C174.845 15.9329 175.642 14.9863 176.709 14.2697C177.774 13.5565 179.071 13.1965 180.596 13.1965C182.191 13.1965 183.491 13.5598 184.501 14.2831C185.506 15.0064 186.23 15.9229 186.672 17.0261C187.115 18.1293 187.332 19.2691 187.332 20.4423C187.332 20.719 187.319 20.989 187.296 21.2555C187.272 21.5222 187.242 21.7089 187.215 21.8189H176.762C176.899 23.062 177.309 24.0285 177.988 24.7185C178.669 25.4084 179.627 25.755 180.864 25.755C181.628 25.755 182.318 25.6284 182.939 25.3717C183.558 25.1151 184.145 24.6852 184.702 24.0853L186.813 25.935C185.988 26.8215 185.097 27.4782 184.129 27.9014C183.16 28.3247 182.067 28.538 180.85 28.538C179.276 28.5347 177.938 28.1914 176.836 27.5048ZM184.299 19.6025C184.319 19.2758 184.29 18.9659 184.209 18.6692C184.052 17.8026 183.652 17.1028 183.019 16.5694C182.385 16.0362 181.568 15.7695 180.566 15.7695C179.456 15.7695 178.585 16.1162 177.955 16.8061C177.325 17.496 176.926 18.4293 176.758 19.6025H184.299Z" fill="#00594C"/>
<path id="Vector_10" d="M190.724 13.4799H193.713V16.1695C193.931 15.5396 194.26 14.9996 194.696 14.5497C195.131 14.0997 195.631 13.7631 196.19 13.5365C196.75 13.3099 197.323 13.1965 197.906 13.1965C198.392 13.1965 198.861 13.2765 199.311 13.4332C199.762 13.5899 200.151 13.8264 200.477 14.1431L199.079 16.6562C198.563 16.3295 198.016 16.1695 197.443 16.1695C196.81 16.1695 196.204 16.3629 195.631 16.7461C195.054 17.1294 194.588 17.7293 194.226 18.5425C193.864 19.3558 193.683 20.369 193.683 21.5822V28.2513H190.724V13.4799Z" fill="#00594C"/>
<path id="Vector_11" d="M203.905 27.9947C203.058 27.6347 202.34 27.1482 201.75 26.5316C201.16 25.915 200.741 25.2285 200.494 24.4685L202.963 23.3887C203.231 24.1186 203.653 24.7318 204.227 25.2285C204.803 25.725 205.564 25.975 206.515 25.975C207.109 25.975 207.615 25.875 208.024 25.6783C208.436 25.4817 208.744 25.2251 208.952 24.9084C209.16 24.5918 209.264 24.2585 209.264 23.9019C209.264 23.4986 209.13 23.1687 208.861 22.9187C208.594 22.6688 208.259 22.4688 207.849 22.3187C207.444 22.1721 206.877 22.0022 206.153 21.8155C205.152 21.5589 204.337 21.2988 203.708 21.0389C203.077 20.7789 202.538 20.3724 202.085 19.8257C201.633 19.2791 201.408 18.5425 201.408 17.616C201.408 16.6695 201.65 15.8629 202.135 15.1996C202.622 14.533 203.272 14.0331 204.083 13.6998C204.894 13.3632 205.792 13.1965 206.774 13.1965C208.004 13.1965 209.089 13.4732 210.031 14.0231C210.974 14.5764 211.72 15.3529 212.277 16.3595L209.897 17.646C209.153 16.2962 208.077 15.6196 206.67 15.6196C205.966 15.6196 205.404 15.7695 204.98 16.0696C204.558 16.3695 204.347 16.7527 204.347 17.216C204.347 17.5627 204.475 17.8493 204.726 18.0826C204.977 18.3159 205.299 18.5026 205.685 18.6459C206.07 18.7892 206.603 18.9558 207.277 19.1425C208.319 19.4291 209.17 19.7157 209.833 20.009C210.497 20.299 211.07 20.7456 211.55 21.3455C212.029 21.9454 212.27 22.752 212.27 23.7553C212.27 24.8018 212.009 25.6817 211.483 26.395C210.957 27.1082 210.269 27.6448 209.415 27.9981C208.563 28.3547 207.638 28.5313 206.65 28.5313C205.671 28.5347 204.752 28.3547 203.905 27.9947Z" fill="#00594C"/>
</g>
</svg>
